# xmcd
#
# Track frame offsets: 
#        150
#        125412
#        223382
#
# Disc length: 4222 seconds
#
# Revision: 4
# Processed by: cddbd v1.4PL0 Copyright (c) Steve Scherf et al.
# Submitted via: ExactAudioCopy v0.90b2
#
DISCID=2c107c03
DTITLE=Anna Wise - High Performance Mind - Disc1
DYEAR=1998
DGENRE=New Age
TTITLE0=Beta Mystery
TTITLE1=Deep Relaxation
TTITLE2=House of Doors
EXTD=
EXTT0=
EXTT1=
EXTT2=
PLAYORDER=
